<?xml version="1.0" encoding="UTF-8"?>
<svg id="Calque_1" data-name="Calque 1" xmlns="http://www.w3.org/2000/svg" viewBox="0 0 301.5 420.73">
  <defs>
    <style>
      .cls-1 {
        fill: #ffde00;
      }

      .cls-1, .cls-2 {
        stroke-width: 0px;
      }
    </style>
  </defs>
  <path class="cls-2" d="m151.5,420.73h-1.5c-.93-.78-1.81-1.65-2.81-2.34-27.37-18.72-55.03-37.04-82.07-56.22-32.09-22.77-52.41-53.76-61.3-92.08-1.65-7.1-2.57-14.37-3.83-21.57,0-53.16,0-106.32,0-159.48,5.42-2.46,10.77-5.06,16.26-7.35,54.2-22.69,110.59-31.12,169.08-25.65,28.7,2.68,56.54,9.13,83.46,19.33,11.04,4.19,21.81,9.09,32.7,13.67v159.48c-.75,4.65-1.42,9.31-2.25,13.94-7.1,39.42-26.27,71.85-58.1,96.11-18.81,14.34-38.88,27.03-58.37,40.48-10.44,7.2-20.85,14.45-31.27,21.68Zm136.78-243.13c.16,0,.31,0,.47,0,0-24.08,0-48.16.02-72.25,0-1.91,0-3.34-2.26-4.43-37.16-18.01-76.37-28.33-117.57-30.46-22.46-1.16-44.93-.27-67.22,3.48-29.78,5.01-58.57,13.04-85.72,26.51-2.45,1.21-3.34,2.54-3.33,5.34.15,37.56-.02,75.12.29,112.67.11,13.81.02,27.81,2.2,41.37,6.2,38.5,25.85,69.26,57.58,91.88,24.79,17.67,50.21,34.45,75.28,51.72,2.12,1.46,3.49,1.37,5.54-.04,22-15.14,43.94-30.38,66.16-45.18,17.77-11.83,33.46-25.66,45.2-43.62,14.07-21.51,22.65-44.94,23.25-70.75.51-22.07.11-44.16.11-66.25Z"/>
  <path class="cls-1" d="m288.28,177.6c0,22.08.41,44.18-.11,66.25-.6,25.81-9.19,49.24-23.25,70.75-11.75,17.97-27.43,31.79-45.2,43.62-22.23,14.8-44.16,30.04-66.16,45.18-2.05,1.41-3.41,1.5-5.54.04-25.07-17.28-50.49-34.06-75.28-51.72-31.73-22.62-51.39-53.38-57.58-91.88-2.18-13.56-2.08-27.56-2.2-41.37-.31-37.56-.14-75.12-.29-112.67-.01-2.79.88-4.12,3.33-5.34,27.15-13.47,55.94-21.5,85.72-26.51,22.29-3.75,44.76-4.64,67.22-3.48,41.2,2.12,80.41,12.45,117.57,30.46,2.25,1.09,2.26,2.52,2.26,4.43-.02,24.08-.02,48.16-.02,72.25-.16,0-.31,0-.47,0Zm-137.69,222.32c7.26-4.95,14.09-9.55,20.87-14.22,19.94-13.72,40.58-26.55,59.64-41.4,34.83-27.16,52.57-63.52,52.98-107.78.36-39.92-.15-79.85.41-119.77.11-8.1-2.32-11.72-9.66-14.93-34.64-15.16-70.66-24.28-108.43-26.07-22.89-1.09-45.69.28-68.27,4.38-26.97,4.9-53.05,12.6-77.68,24.82-2.24,1.11-3.22,2.39-3.21,5.08.12,41.55,0,83.09.23,124.64.05,8.56.68,17.22,2.15,25.64,5.88,33.66,22.01,61.93,49.14,82.53,26.4,20.05,54.36,38.05,81.84,57.09Z"/>
  <path class="cls-2" d="m80.22,5.27c1.14,4.04,2.17,7.7,3.32,11.8-20.15,5.34-39.96,10.59-60.04,15.92.29,1.25.54,2.27.86,3.63,1.04-.12,2-.13,2.9-.36,15.44-3.95,30.87-7.96,46.33-11.84,2.13-.54,4.44-.63,6.65-.57,3.23.09,5.34,1.89,6.19,5.02,1.41,5.16,2.91,10.3,4.11,15.5,1.06,4.61-1.46,8.03-7.19,9.61-12,3.32-24.05,6.46-36.08,9.65-9.74,2.58-19.49,5.13-29.8,7.83-1.05-3.98-2.04-7.72-3.12-11.8,20.17-5.34,39.99-10.58,60.08-15.89-.41-1.38-.76-2.54-1.22-4.07-9.01,2.33-17.88,4.63-26.75,6.91-7.84,2.02-15.68,4.04-23.53,6.01-6.86,1.72-10.4-.3-12.3-7.07-1.11-3.95-2.18-7.92-3.06-11.92-1.23-5.58.41-8.69,5.98-10.62,4.46-1.55,9.09-2.59,13.67-3.8,17.46-4.61,34.92-9.19,53-13.94Z"/>
  <path class="cls-2" d="m268.94,56.62c.49-1.43.88-2.56,1.35-3.94-13.21-4.17-26.13-8.22-39.03-12.35-4.26-1.36-8.54-2.75-12.67-4.45-4.78-1.96-6.27-5.27-4.85-10.19,1.17-4.06,2.49-8.07,3.81-12.09,2.1-6.41,5.5-8.6,11.91-6.65,21.54,6.53,43,13.34,65.04,20.22-1.13,3.86-2.19,7.48-3.43,11.72-19.82-6.11-39.35-12.14-59.21-18.26-.53,1.28-.99,2.38-1.58,3.82,9.02,2.85,17.89,5.62,26.75,8.45,7.7,2.46,15.4,4.94,23.08,7.5,6.74,2.25,8.44,5.54,6.42,12.22-1.26,4.16-2.51,8.33-3.93,12.44-1.54,4.45-4.23,6.33-8.87,5.43-4.74-.92-9.37-2.47-14-3.9-17.01-5.23-34-10.52-50.99-15.8-.81-.25-1.58-.64-2.61-1.06,1.19-3.79,2.33-7.42,3.61-11.46,19.83,6.15,39.4,12.21,59.21,18.35Z"/>
  <path class="cls-2" d="m188.09,18.34c0,8.31.21,15.9-.08,23.46-.17,4.29-3.56,6.7-8.83,6.73-9.5.06-18.99,0-28.49-.14-9.74-.14-19.49-.39-29.23-.66-8.57-.24-10.99-2.84-10.84-11.45.15-9.11.31-18.21.44-27.32C111.14,3.16,114.14,0,120.08,0c13.12.02,26.24.24,39.36.32,9.61.06,19.22.01,29.1.01v12.52h-61.92v22.8h45.9c.08-.95.2-2.4.39-4.68h-37.26v-12.64h52.44Z"/>
  <path class="cls-2" d="m150.59,399.92c-27.48-19.04-55.44-37.04-81.84-57.09-27.13-20.6-43.26-48.87-49.14-82.53-1.47-8.42-2.11-17.08-2.15-25.64-.23-41.54-.1-83.09-.23-124.64,0-2.69.97-3.97,3.21-5.08,24.63-12.22,50.71-19.92,77.68-24.82,22.58-4.1,45.38-5.47,68.27-4.38,37.77,1.79,73.78,10.91,108.43,26.07,7.34,3.21,9.78,6.83,9.66,14.93-.55,39.92-.04,79.85-.41,119.77-.4,44.26-18.15,80.62-52.98,107.78-19.05,14.86-39.7,27.68-59.64,41.4-6.78,4.67-13.6,9.27-20.87,14.22ZM59.03,147.08c1.13-.95,2.09-1.92,3.21-2.64,14.56-9.49,30.61-12.32,47.6-9.97,6.49.9,12.5,2.76,19.21-.52,14.84-7.25,30.75-11.46,46.98-14.56,14.06-2.69,26.01-.22,34.71,12.19,1.46,2.08,3.58,3.92,5.79,5.2,7.54,4.38,15.16,8.68,22.96,12.57,3.02,1.5,6.78,1.46,9.94,2.76,5.77,2.37,11.42,5.08,16.96,7.97,1.32.69,1.98,2.64,3.13,4.28-7.31,4.32-14.2,8.4-21.09,12.48,2.83.55,5.38.3,7.91-.04,2.62-.36,4.09.44,3.99,3.36-.05,1.55.23,3.1.36,4.65l1.25.2c.7-2.27,1.73-4.51,2.02-6.83.39-3.18,2.01-3.94,4.86-3.5,1.45,6.29.1,11.44-5.39,15.14-.93.63-1.8,1.34-2.71,2-3.32,2.41-4.56,5.54-4.34,9.71.14,2.71-.96,5.48-1.65,8.93-3.46-2.22-5.87-3.73-8.25-5.31-6.82-4.54-14.31-5.69-22.2-4.02-18.71,3.95-32.58,14.96-43.54,30.11-.61.84-.99,1.85-1.47,2.78,7-4.83,11.7-12.28,19.58-15.8-3.28,4.77-7.07,9.12-10.12,13.93-5.51,8.72-4.9,15.35,1.47,23.34,9.34,11.71,21.82,17.81,36.3,20.48,5.02.93,5.53,2.25,2.99,6.78-.73,1.3-1.61,2.52-2.55,3.68-9.26,11.41-21.21,18.74-35.21,22.86-1.45.43-3,.53-5.39.93,1.7-1.94,2.78-3.11,3.8-4.33,5.14-6.15,5.26-9.48-.19-15.27-7.45-7.91-15.23-15.5-22.76-23.33-2.58-2.69-5.26-5.43-7.18-8.58-6.52-10.73-5.45-21.86-.98-33,.5-1.25,1-2.5,1.5-3.74-8.13,6.86-10.68,16.05-11.45,26.36-19.81-6.24-31.16-20.43-38.58-38.68-.28.75-.33,1.34-.26,1.93.09.86.22,1.73.41,2.58,3.64,16.12,12.17,29.49,26.47,37.36,10.67,5.87,19.32,13.09,26.58,22.5,1.55,2.01,3.53,3.7,5.88,6.13-15.49,1.91-29.76,5.17-43.53,10.44-13.95,5.33-33.83,16.54-38.18,21.81,5.38-2.08,10.33-4.06,15.33-5.9,4.91-1.81,9.83-3.6,14.82-5.16,5.11-1.59,10.27-3.05,15.47-4.28,5.07-1.19,10.23-2.01,15.8-3.08-4.13,6.05-8.4,11.06-11.28,16.77-10.61,20.98-11.05,43.64-10.01,66.44.05,1.09,1.15,2.44,2.14,3.13,5.82,4.09,11.82,7.92,17.6,12.07,2.3,1.65,3.94,1.62,6.28,0,14.26-9.88,28.73-19.45,42.94-29.4,13.08-9.16,26.79-17.66,38.68-28.2,28.37-25.14,43.39-57.25,44.02-95.21.68-40.79.14-81.61.42-122.41.03-4.96-1.36-7.32-5.94-9.41-35.24-16.11-72.11-25.4-110.85-26.9-24.17-.93-48.17,1.01-71.87,5.96-23.13,4.83-45.56,11.8-66.77,22.39-2.11,1.05-3.13,2.2-3.12,4.79.1,34.82.07,69.63.08,104.45,0,1.01.17,2.02.18,2.2,21.05-18.43,42.18-36.93,63.45-55.54-11.08-2.28-19.67-8.4-26.21-18.02Zm124.45,64.6c.72-23.9,10.01-40.85,35.61-45.59-3.33-3.67-6.99-4.85-11.11-3.16-4.62,1.9-9.21,1.99-13.91.77-10.62-2.75-21.43-3.43-32.31-2.75-5.03.31-10.01,1.37-15.02,2.09,16.37-.01,32.69-1.02,48.39,5.45-1.86,3.67-4.42,5.48-8.4,5.57-4.61.1-9.29.2-13.78,1.11-7.52,1.52-14.91,3.68-22.35,5.56l.19.47c12.12-1.7,24.24-3.41,36.88-5.18-.58,5.71-2.58,9.2-6.74,11.23-2.23,1.09-4.6,1.9-6.89,2.88-7.54,3.25-15.94,8.66-18.9,12.47,9.11-5.6,17.84-10.23,28.34-12.71v21.78Zm-107.08-66.56c6.22,1.59,12.55,2.89,18.65,4.87,6.14,2,11.41,5.59,15.75,10.34-.07.44-.15.87-.22,1.31-5.35.41-10.71.83-16.95,1.31,8.71,2.76,16.69,2.2,24.85,1.12-3.86-11.42-25.92-21.45-42.07-18.95Zm100.66.31c4.85,6.14,10.05,9.23,16.75,10.99-.6-3.44-1.09-6.3-1.73-9.97,4.99,2.67,9.31,4.99,14.35,7.68-1.52-5.18-3.31-9.38-8.01-9.58-6.77-.3-13.59.5-21.36.88Zm77,19.53c-11.63-4.57-22.56-8.87-32.81-12.9,7.87,5.67,17.18,10.27,27,13.77,1.56.55,3.69-.51,5.81-.87Z"/>
  <path class="cls-1" d="m59.03,147.08c6.54,9.62,15.12,15.74,26.21,18.02-21.27,18.62-42.4,37.11-63.45,55.54-.02-.18-.18-1.19-.18-2.2-.01-34.82.02-69.63-.08-104.45,0-2.59,1.01-3.74,3.12-4.79,21.21-10.59,43.63-17.56,66.77-22.39,23.7-4.94,47.69-6.89,71.87-5.96,38.74,1.5,75.61,10.79,110.85,26.9,4.57,2.09,5.97,4.45,5.94,9.41-.28,40.8.26,81.62-.42,122.41-.63,37.95-15.65,70.06-44.02,95.21-11.89,10.53-25.6,19.04-38.68,28.2-14.21,9.95-28.68,19.52-42.94,29.4-2.34,1.62-3.98,1.65-6.28,0-5.78-4.15-11.78-7.97-17.6-12.07-.99-.7-2.09-2.04-2.14-3.13-1.03-22.8-.59-45.47,10.01-66.44,2.89-5.71,7.15-10.72,11.28-16.77-5.58,1.07-10.73,1.89-15.8,3.08-5.21,1.22-10.37,2.68-15.47,4.28-4.99,1.56-9.91,3.35-14.82,5.16-5,1.84-9.95,3.82-15.33,5.9,4.35-5.27,24.23-16.48,38.18-21.81,13.77-5.27,28.04-8.53,43.53-10.44-2.35-2.43-4.33-4.12-5.88-6.13-7.26-9.41-15.91-16.64-26.58-22.5-14.31-7.87-22.84-21.23-26.47-37.36-.19-.85-.32-1.71-.41-2.58-.06-.59-.01-1.18.26-1.93,7.42,18.25,18.77,32.44,38.58,38.68.77-10.3,3.31-19.49,11.45-26.36-.5,1.25-1,2.5-1.5,3.74-4.47,11.15-5.55,22.27.98,33,1.92,3.15,4.59,5.89,7.18,8.58,7.53,7.83,15.31,15.42,22.76,23.33,5.46,5.79,5.33,9.12.19,15.27-1.02,1.22-2.1,2.39-3.8,4.33,2.4-.4,3.94-.5,5.39-.93,14.01-4.13,25.95-11.45,35.21-22.86.94-1.16,1.83-2.38,2.55-3.68,2.54-4.53,2.04-5.85-2.99-6.78-14.48-2.67-26.97-8.77-36.3-20.48-6.37-7.99-6.99-14.61-1.47-23.34,3.04-4.82,6.84-9.16,10.12-13.93-7.88,3.52-12.58,10.96-19.58,15.8.49-.93.86-1.94,1.47-2.78,10.96-15.15,24.83-26.16,43.54-30.11,7.89-1.67,15.37-.51,22.2,4.02,2.37,1.58,4.79,3.09,8.25,5.31.68-3.45,1.79-6.22,1.65-8.93-.22-4.17,1.02-7.3,4.34-9.71.91-.66,1.78-1.37,2.71-2,5.49-3.7,6.84-8.85,5.39-15.14-2.85-.44-4.47.32-4.86,3.5-.29,2.32-1.32,4.56-2.02,6.83l-1.25-.2c-.13-1.55-.41-3.11-.36-4.65.1-2.92-1.37-3.72-3.99-3.36-2.53.35-5.08.59-7.91.04,6.89-4.08,13.79-8.15,21.09-12.48-1.15-1.64-1.81-3.59-3.13-4.28-5.53-2.89-11.18-5.6-16.96-7.97-3.16-1.3-6.92-1.25-9.94-2.76-7.81-3.89-15.42-8.18-22.96-12.57-2.21-1.28-4.33-3.12-5.79-5.2-8.7-12.41-20.66-14.88-34.71-12.19-16.23,3.1-32.14,7.31-46.98,14.56-6.7,3.28-12.71,1.41-19.21.52-16.99-2.35-33.03.49-47.6,9.97-1.12.73-2.07,1.7-3.21,2.64Zm169.96,86.28c7.26-4.55,12.9-10.21,16.32-17.87,2.07-4.64,1.64-6.23-2.94-8.23-10.5-4.58-20.71-3.97-30.12,2.82-5.77,4.16-8.98,8.55-9.81,12.47,5.52-5.25,11.44-9.5,18.69-11.63,9.39-2.76,12.83.12,11.15,9.78-.72,4.12-2.09,8.13-3.29,12.66Zm-38.4,16.17c.09,1.09,0,1.5.16,1.77,5.93,10.09,15.43,15.15,26.22,18.24,2.62.75,4.39-.91,4.9-3.4.7-3.39,1.49-6.86,1.45-10.29-.05-3.92-.96-7.83-1.5-11.75-.34.03-.68.06-1.02.09-1.37,3.31-2.59,6.7-4.15,9.92-3.17,6.53-7.9,7.87-13.95,3.93-3.95-2.57-7.71-5.41-12.1-8.51Zm-32.43,125.58c-3.8-6.43-2.03-10.67,4.31-13.63-3.19-.5-6.47.23-8.34-1.07-1.81-1.26-2.17-4.6-3.33-7.43-1.31,2.94-1.78,6.22-3.63,7.52-1.81,1.27-5.04.53-7.65.67-.26.25-.53.51-.79.76,7.48,2.41,7.83,7.12,4.69,13.55,5.05-6.12,9.68-5.38,14.76-.37Z"/>
  <path class="cls-1" d="m183.48,211.68v-21.78c-10.5,2.48-19.23,7.11-28.34,12.71,2.96-3.81,11.36-9.22,18.9-12.47,2.29-.99,4.65-1.8,6.89-2.88,4.16-2.03,6.16-5.52,6.74-11.23-12.64,1.78-24.76,3.48-36.88,5.18l-.19-.47c7.44-1.89,14.83-4.05,22.35-5.56,4.49-.91,9.18-1.01,13.78-1.11,3.98-.09,6.54-1.9,8.4-5.57-15.7-6.46-32.02-5.46-48.39-5.45,5-.72,9.99-1.77,15.02-2.09,10.88-.68,21.69,0,32.31,2.75,4.7,1.22,9.29,1.13,13.91-.77,4.12-1.7,7.77-.51,11.11,3.16-25.6,4.74-34.89,21.69-35.61,45.59Z"/>
  <path class="cls-1" d="m76.4,145.12c16.15-2.5,38.22,7.53,42.07,18.95-8.16,1.08-16.14,1.63-24.85-1.12,6.25-.48,11.6-.9,16.95-1.31.07-.44.15-.87.22-1.31-4.34-4.75-9.61-8.34-15.75-10.34-6.1-1.98-12.42-3.27-18.65-4.87Z"/>
  <path class="cls-1" d="m177.06,145.44c7.77-.38,14.59-1.18,21.36-.88,4.7.21,6.49,4.41,8.01,9.58-5.03-2.69-9.35-5.01-14.35-7.68.63,3.67,1.13,6.53,1.73,9.97-6.7-1.76-11.9-4.85-16.75-10.99Z"/>
  <path class="cls-1" d="m254.06,164.97c-2.12.36-4.26,1.43-5.81.87-9.82-3.5-19.13-8.1-27-13.77,10.25,4.03,21.19,8.33,32.81,12.9Z"/>
  <path class="cls-2" d="m228.99,233.37c1.2-4.53,2.57-8.54,3.29-12.66,1.68-9.66-1.75-12.54-11.15-9.78-7.25,2.13-13.17,6.38-18.69,11.63.83-3.92,4.04-8.31,9.81-12.47,9.41-6.79,19.62-7.4,30.12-2.82,4.58,2,5.01,3.58,2.94,8.23-3.41,7.66-9.06,13.32-16.32,17.87Z"/>
  <path class="cls-2" d="m190.59,249.54c4.39,3.1,8.16,5.94,12.1,8.51,6.05,3.94,10.78,2.6,13.95-3.93,1.56-3.22,2.78-6.61,4.15-9.92.34-.03.68-.06,1.02-.09.54,3.92,1.46,7.83,1.5,11.75.04,3.43-.76,6.89-1.45,10.29-.51,2.49-2.28,4.15-4.9,3.4-10.79-3.08-20.29-8.15-26.22-18.24-.16-.27-.07-.68-.16-1.77Z"/>
  <path class="cls-2" d="m158.17,375.11c-5.07-5.01-9.71-5.76-14.76.37,3.14-6.43,2.79-11.14-4.69-13.55.26-.25.53-.51.79-.76,2.61-.14,5.84.6,7.65-.67,1.86-1.3,2.32-4.58,3.63-7.52,1.16,2.84,1.52,6.18,3.33,7.43,1.87,1.3,5.15.57,8.34,1.07-6.34,2.96-8.11,7.2-4.31,13.63Z"/>
</svg>